# xmcd CD database file
#
# Track frame offsets:
#	150
#	22560
#	46465
#	82842
#	119857
#	146655
#	179847
#	216695
#
# Disc length: 3198 seconds
#
# Revision: 0
# Processed by: cddbd v1.5.2PL0 Copyright (c) Steve Scherf et al.
# Submitted via: CDex 1.51
#
DISCID=760c7c08
DTITLE=Lin Halliday - Airegin
DYEAR=2000
DGENRE=Jazz
TTITLE0=Airegin
TTITLE1=Sophisticated Lady
TTITLE2=With A Song In My Heart
TTITLE3=Softly As In A Morning Sunrise
TTITLE4=My Foolish Heart
TTITLE5=Hello Young Lovers
TTITLE6=Love Letters
TTITLE7=Cherokee
EXTD=YEAR: 2000
EXTT0=
EXTT1=
EXTT2=
EXTT3=
EXTT4=
EXTT5=
EXTT6=
EXTT7=
PLAYORDER=
